<?xml version="1.0" encoding="UTF-8"?>
<svg id="Capa_1" xmlns="http://www.w3.org/2000/svg" version="1.1" viewBox="0 0 717.2 58.6">
  <!-- Generator: Adobe Illustrator 29.3.1, SVG Export Plug-In . SVG Version: 2.1.0 Build 151)  -->
  <defs>
    <style>
      .st0 {
        fill: #fff;
      }
    </style>
  </defs>
  <g>
    <path class="st0" d="M13.5,25.4v12.8h6.3v5.4h-5.1c-4.4,0-7.3-2.9-7.3-7.3V13h6.2v7h6.9v5.4h-6.9,0Z"/>
    <path class="st0" d="M29.8,29.5h10.8c0-4-1.7-5.4-5.2-5.4s-5.1,1.6-5.6,5.4M46.7,33.7h-16.9c.4,3.9,2.1,5.6,5.9,5.6s4-.8,5.2-3.3l5.3,1.9c-1.6,4.1-5.3,6.2-10.7,6.2s-12.1-4.8-12.1-12.1,4.9-12.4,11.9-12.4,11.4,4.7,11.4,12,0,1.3,0,2.3"/>
    <path class="st0" d="M68.6,33.3l6.1,1.4c-1.7,6.7-6.4,9.3-11.9,9.3s-12.5-4.9-12.5-12.2,5.1-12.3,12.5-12.3,10.3,2.9,11.9,9.3l-6.1,1.4c-.7-4-2.4-5.3-5.8-5.3s-6.3,2.2-6.3,6.8,2,6.7,6.3,6.7,5-1.3,5.8-5.3"/>
    <path class="st0" d="M102.4,29.5v14.1h-6.2v-13.8c0-3.2-1.7-4.8-4.6-4.8s-5.6,2.4-5.6,7.3v11.3h-6.2V9.9h6.2v15.6c1.2-3.8,3.6-6,7.9-6s8.5,3.3,8.5,10"/>
    <path class="st0" d="M106.8,37.1l5.8-1.6c.4,3.1,2,3.9,5,3.9s3.9-.8,3.9-2.4-.7-2.2-3.5-2.6l-4-.6c-4.2-.7-6.7-3-6.7-7.1s3.5-7.2,9.5-7.2,9.4,2.6,10.1,6.8l-5.4,1.3c-.3-3-1.5-3.7-4.5-3.7s-3.5.9-3.5,2.5.6,2.1,3,2.5l4.8.7c3.9.5,6.4,2.9,6.4,6.7s-3.9,7.8-10.4,7.8-9.8-3.1-10.4-7"/>
    <path class="st0" d="M150.2,31.8c0-4.6-2.1-6.8-6.5-6.8s-6.6,2.2-6.6,6.8,2.1,6.7,6.6,6.7,6.5-2.2,6.5-6.7M156.4,31.8c0,7.5-5.8,12.2-12.7,12.2s-12.7-4.7-12.7-12.2,5.8-12.3,12.7-12.3,12.7,4.8,12.7,12.3"/>
    <path class="st0" d="M183.9,20v23.6h-14.9c-4.4,0-7.6-2.9-7.6-7.3v-16.3h6.2v18.1h10.2v-18.1h6.2Z"/>
    <rect class="st0" x="190.8" y="9.9" width="6.2" height="33.7"/>
    <path class="st0" d="M221.4,31.8c0-4.6-2.1-6.8-6.5-6.8s-6.6,2.2-6.6,6.8,2.1,6.7,6.6,6.7,6.5-2.2,6.5-6.7M227.7,31.8c0,7.5-5.8,12.2-12.7,12.2s-12.7-4.7-12.7-12.2,5.8-12.3,12.7-12.3,12.7,4.8,12.7,12.3"/>
    <path class="st0" d="M249.5,30.9c0-4-2-6-6.1-6s-6,1.9-6,6,1.9,6,6,6,6.2-1.9,6.2-6M255.4,20v20.7c0,7.2-4.6,11.6-12.4,11.6s-10.5-2.2-11.7-6.4l5.9-2.5c.9,3.2,2.7,3.9,6.1,3.9s5.9-1.6,5.9-5.5v-4.5c-1.5,3.1-4.4,4.9-8.1,4.9-6.1,0-10-4.6-10-11.4s3.8-11.3,9.8-11.3,6.7,1.9,8.3,5.1v-4.6h6.2Z"/>
    <path class="st0" d="M284.9,20l-10.1,26.2c-1.5,3.8-3.6,5.6-8.8,5.6h-4.9v-5.4h8.2l-9.9-26.4h6.7l4.6,14,1.4,5.3,1.5-5.3,4.6-14h6.7,0Z"/>
  </g>
  <g>
    <path class="st0" d="M357.8,44.9c-1.7,0-3.2-.3-4.6-.9-1.4-.6-2.5-1.5-3.5-2.6-1-1.1-1.7-2.5-2.3-4s-.8-3.3-.8-5.3.3-3.7.8-5.3c.5-1.6,1.3-2.9,2.3-4.1,1-1.1,2.1-2,3.5-2.6,1.4-.6,2.9-.9,4.6-.9s3.2.3,4.5.9c1.3.6,2.4,1.4,3.4,2.5.9,1.1,1.6,2.3,2.1,3.8.5,1.5.7,3,.7,4.8v1.8h-17.8v1.1c0,1.1.2,2,.5,2.9.3.9.8,1.7,1.4,2.3.6.7,1.4,1.2,2.3,1.6.9.4,1.9.6,3.1.6s2.9-.4,4.1-1.1c1.2-.7,2.1-1.8,2.7-3.1l2.7,2c-.8,1.7-2,3-3.7,4.1-1.7,1-3.7,1.6-6.1,1.6h0ZM357.8,22.4c-1.1,0-2,.2-2.9.5-.9.4-1.6.9-2.2,1.5-.6.7-1.1,1.4-1.5,2.3-.4.9-.5,1.9-.5,3v.3h13.7v-.5c0-2.2-.6-3.9-1.8-5.2-1.2-1.3-2.8-2-4.8-2h0Z"/>
    <path class="st0" d="M379.9,44.3l-8.7-24.5h3.8l4.3,12.2,2.7,8.4h.2l2.7-8.4,4.4-12.2h3.7l-8.7,24.5h-4.5,0Z"/>
    <path class="st0" d="M407,44.9c-1.7,0-3.2-.3-4.6-.9-1.4-.6-2.5-1.5-3.5-2.6-1-1.1-1.7-2.5-2.3-4-.5-1.6-.8-3.3-.8-5.3s.3-3.7.8-5.3c.5-1.6,1.3-2.9,2.3-4.1,1-1.1,2.1-2,3.5-2.6,1.4-.6,2.9-.9,4.6-.9s3.2.3,4.5.9c1.3.6,2.4,1.4,3.4,2.5.9,1.1,1.6,2.3,2.1,3.8.5,1.5.7,3,.7,4.8v1.8h-17.8v1.1c0,1.1.2,2,.5,2.9.3.9.8,1.7,1.4,2.3.6.7,1.4,1.2,2.3,1.6.9.4,1.9.6,3.1.6s2.9-.4,4.1-1.1c1.2-.7,2.1-1.8,2.7-3.1l2.7,2c-.8,1.7-2,3-3.7,4.1-1.7,1-3.7,1.6-6.1,1.6h0ZM407,22.4c-1.1,0-2,.2-2.9.5-.9.4-1.6.9-2.2,1.5-.6.7-1.1,1.4-1.5,2.3-.4.9-.5,1.9-.5,3v.3h13.7v-.5c0-2.2-.6-3.9-1.8-5.2-1.2-1.3-2.8-2-4.8-2h0Z"/>
    <path class="st0" d="M424.1,44.3v-24.5h3.8v4.5h.2c.4-1.2,1.2-2.2,2.4-3.1,1.2-.9,2.7-1.4,4.8-1.4h1.5v3.8h-2.3c-2.1,0-3.7.4-4.9,1.2-1.2.8-1.8,1.8-1.8,2.9v16.7h-3.8Z"/>
    <path class="st0" d="M457.4,19.8h3.8l-11.1,30.3c-.3.7-.6,1.3-.9,1.8-.3.5-.6.9-1.1,1.2-.4.3-.9.5-1.6.6-.6.1-1.4.2-2.3.2h-2v-3.4h3.9l1.9-5.2-9.3-25.5h3.8l6,16.7,1.2,4h.2l1.3-4,6-16.7h0Z"/>
    <path class="st0" d="M471.6,44.3c-1.3,0-2.4-.4-3.1-1.1-.7-.7-1-1.7-1-2.9v-17.1h-4.1v-3.4h2.3c.8,0,1.4-.2,1.7-.5.3-.3.5-.9.5-1.7v-4.6h3.5v6.8h5.4v3.4h-5.4v17.8h5v3.4h-4.8,0Z"/>
    <path class="st0" d="M483,9.1h3.8v14.6h.2c.6-1.4,1.5-2.5,2.6-3.3,1.1-.8,2.6-1.2,4.4-1.2s4.6.8,6.1,2.5c1.5,1.6,2.2,3.9,2.2,6.9v15.7h-3.8v-15.1c0-4.4-1.9-6.6-5.6-6.6s-1.5,0-2.2.3c-.7.2-1.4.5-2,.9-.6.4-1,.9-1.4,1.5-.3.6-.5,1.3-.5,2.1v17.1h-3.8V9.1h0Z"/>
    <path class="st0" d="M512.2,14c-.8,0-1.4-.2-1.8-.6-.4-.4-.6-.9-.6-1.5v-.6c0-.6.2-1.2.6-1.5.4-.4,1-.6,1.8-.6s1.4.2,1.8.6c.4.4.6.9.6,1.5v.6c0,.6-.2,1.2-.6,1.5-.4.4-1,.6-1.8.6ZM510.3,19.8h3.8v24.5h-3.8v-24.5Z"/>
    <path class="st0" d="M522.3,44.3v-24.5h3.8v3.9h.2c.6-1.4,1.5-2.5,2.6-3.3,1.1-.8,2.6-1.2,4.4-1.2s4.6.8,6.1,2.5c1.5,1.6,2.2,3.9,2.2,6.9v15.7h-3.8v-15.1c0-4.4-1.9-6.6-5.6-6.6s-1.5,0-2.2.3-1.4.5-2,.9c-.6.4-1,.9-1.4,1.5-.3.6-.5,1.3-.5,2.1v17.1h-3.9Z"/>
    <path class="st0" d="M570.4,47c0,2.5-1,4.4-3,5.6-2,1.2-5,1.8-9,1.8s-6.7-.5-8.4-1.6-2.5-2.5-2.5-4.5.4-2.4,1.1-3.1c.7-.7,1.7-1.3,2.9-1.6v-.5c-1.5-.7-2.2-1.8-2.2-3.4s.4-2.2,1.2-2.8c.8-.6,1.8-1.1,3.1-1.4v-.2c-1.5-.7-2.6-1.7-3.4-3-.8-1.3-1.2-2.8-1.2-4.5s.2-2.4.7-3.4c.4-1.1,1.1-1.9,1.9-2.7.8-.8,1.8-1.3,2.9-1.7,1.1-.4,2.4-.6,3.8-.6s3.3.3,4.7.9v-.4c0-1,.2-1.8.7-2.4.4-.6,1.2-.9,2.2-.9h3.7v3.4h-4.7v1.6c.9.8,1.6,1.7,2.1,2.7.5,1.1.7,2.3.7,3.6s-.2,2.4-.7,3.4c-.4,1.1-1.1,1.9-1.9,2.7-.8.8-1.8,1.3-2.9,1.7-1.2.4-2.4.6-3.8.6s-1.6,0-2.4-.2c-.8.2-1.6.5-2.3,1-.7.4-1,1-1,1.8s.4,1.2,1.1,1.5c.7.3,1.6.4,2.7.4h5.3c3.1,0,5.3.6,6.7,1.7,1.4,1.2,2.1,2.7,2.1,4.8h0ZM566.8,47.3c0-1-.4-1.8-1.1-2.3s-2.1-.9-4-.9h-8.3c-1.5.7-2.3,1.8-2.3,3.3s.4,2,1.2,2.8c.8.8,2.2,1.1,4.2,1.1h3.6c2.1,0,3.8-.3,5-1,1.2-.7,1.8-1.7,1.8-3h0ZM558.2,33.1c1.6,0,2.9-.4,3.9-1.2,1-.8,1.4-2,1.4-3.6v-1.3c0-1.6-.5-2.8-1.4-3.6-1-.8-2.3-1.2-3.9-1.2s-2.9.4-3.9,1.2c-1,.8-1.4,2-1.4,3.6v1.3c0,1.6.5,2.8,1.4,3.6,1,.8,2.3,1.2,3.9,1.2Z"/>
    <path class="st0" d="M583.6,19.8h3.7l2.6,10.6,2.6,10.7h0l3-10.7,3.1-10.6h3.4l3.2,10.6,3.1,10.7h0l2.5-10.7,2.7-10.6h3.6l-6.6,24.5h-4.8l-3.5-11.8-2.2-7.5h0l-2.1,7.5-3.5,11.8h-4.7l-6.6-24.5h0Z"/>
    <path class="st0" d="M632.2,44.9c-1.7,0-3.2-.3-4.6-.9-1.4-.6-2.5-1.5-3.5-2.6-1-1.1-1.7-2.5-2.3-4-.5-1.6-.8-3.3-.8-5.3s.3-3.7.8-5.3c.5-1.6,1.3-2.9,2.3-4.1,1-1.1,2.1-2,3.5-2.6,1.4-.6,2.9-.9,4.6-.9s3.2.3,4.5.9c1.3.6,2.4,1.4,3.4,2.5.9,1.1,1.6,2.3,2.1,3.8.5,1.5.7,3,.7,4.8v1.8h-17.8v1.1c0,1.1.2,2,.5,2.9.3.9.8,1.7,1.4,2.3.6.7,1.4,1.2,2.3,1.6.9.4,1.9.6,3.1.6s2.9-.4,4.1-1.1c1.2-.7,2.1-1.8,2.7-3.1l2.7,2c-.8,1.7-2,3-3.7,4.1-1.7,1-3.7,1.6-6.1,1.6h0ZM632.2,22.4c-1.1,0-2,.2-2.9.5-.9.4-1.6.9-2.2,1.5-.6.7-1.1,1.4-1.5,2.3-.4.9-.5,1.9-.5,3v.3h13.7v-.5c0-2.2-.6-3.9-1.8-5.2-1.2-1.3-2.8-2-4.8-2h0Z"/>
    <path class="st0" d="M676.4,40.4h-.2c-1.5,3-3.9,4.5-7.2,4.5s-2.9-.3-4.2-.9c-1.2-.6-2.3-1.5-3.2-2.6-.9-1.1-1.6-2.5-2-4-.5-1.6-.7-3.4-.7-5.3s.2-3.7.7-5.3c.5-1.6,1.1-2.9,2-4,.9-1.1,1.9-2,3.2-2.6,1.2-.6,2.6-.9,4.2-.9s3.2.4,4.4,1.1c1.2.7,2.2,1.9,2.8,3.4h.2v-14.6h3.8v35.2h-3.8v-3.9h0ZM670,41.5c.9,0,1.7-.1,2.5-.3s1.5-.5,2-1c.6-.4,1-1,1.4-1.6.3-.6.5-1.3.5-2.1v-9.2c0-.7-.2-1.3-.5-1.9-.3-.6-.8-1.1-1.4-1.5-.6-.4-1.3-.7-2-1-.8-.2-1.6-.4-2.5-.4-2.2,0-3.9.7-5.1,2-1.2,1.3-1.9,3.1-1.9,5.3v4.2c0,2.2.6,4,1.9,5.3,1.2,1.3,3,2,5.1,2h0Z"/>
    <path class="st0" d="M697.8,44.9c-1.7,0-3.2-.3-4.6-.9-1.4-.6-2.6-1.5-3.5-2.6-1-1.1-1.7-2.5-2.3-4-.6-1.6-.8-3.3-.8-5.3s.3-3.7.8-5.3c.6-1.6,1.3-2.9,2.3-4.1,1-1.1,2.1-2,3.5-2.6,1.4-.6,2.9-.9,4.6-.9s3.2.3,4.5.9c1.4.6,2.5,1.5,3.5,2.6,1,1.1,1.8,2.5,2.3,4.1.6,1.6.8,3.3.8,5.3s-.3,3.7-.8,5.3c-.6,1.6-1.3,2.9-2.3,4-1,1.1-2.2,2-3.5,2.6-1.4.6-2.9.9-4.5.9ZM697.8,41.5c2.1,0,3.8-.6,5.1-1.9,1.3-1.3,2-3.2,2-5.8v-3.5c0-2.6-.7-4.5-2-5.8-1.3-1.3-3-1.9-5.1-1.9s-3.8.6-5.1,1.9c-1.3,1.3-2,3.2-2,5.8v3.5c0,2.6.7,4.5,2,5.8,1.3,1.3,3,1.9,5.1,1.9Z"/>
    <path class="st0" d="M304.7,14c-.8,0-1.4-.2-1.8-.6-.4-.4-.6-.9-.6-1.5v-.6c0-.6.2-1.2.6-1.5.4-.4,1-.6,1.8-.6s1.4.2,1.8.6.6.9.6,1.5v.6c0,.6-.2,1.2-.6,1.5-.4.4-1,.6-1.8.6ZM302.8,19.8h3.8v24.5h-3.8v-24.5Z"/>
    <path class="st0" d="M314.8,44.3v-24.5h3.8v3.9h.2c.6-1.4,1.5-2.5,2.6-3.3,1.1-.8,2.6-1.2,4.4-1.2s4.6.8,6.1,2.5c1.5,1.6,2.2,3.9,2.2,6.9v15.7h-3.8v-15.1c0-4.4-1.9-6.6-5.6-6.6s-1.5,0-2.2.3-1.4.5-2,.9c-.6.4-1,.9-1.4,1.5-.3.6-.5,1.3-.5,2.1v17.1h-3.9Z"/>
  </g>
</svg>