<?xml version="1.0" encoding="UTF-8"?>
<svg id="Capa_1" xmlns="http://www.w3.org/2000/svg" version="1.1" viewBox="0 0 419.7 422.9">
  <!-- Generator: Adobe Illustrator 29.3.1, SVG Export Plug-In . SVG Version: 2.1.0 Build 151)  -->
  <defs>
    <style>
      .st0 {
        fill: #f2f2f2;
      }

      .st1 {
        fill: #ff0d58;
      }
    </style>
  </defs>
  <circle class="st0" cx="209.9" cy="211.5" r="202.1"/>
  <g>
    <path class="st1" d="M209.9,119.3c-33.9,0-61.5,27.5-61.5,61.5s27.5,61.5,61.5,61.5,61.5-27.5,61.5-61.5-27.5-61.5-61.5-61.5M209.9,138.2c23.5,0,42.6,19.1,42.6,42.6s-19.1,42.6-42.6,42.6-42.6-19.1-42.6-42.6,19.1-42.6,42.6-42.6"/>
    <path class="st1" d="M209.9,180.7c-33.9,0-61.5,27.5-61.5,61.5s27.5,61.5,61.5,61.5,61.5-27.5,61.5-61.5-27.5-61.5-61.5-61.5M209.9,199.6c23.5,0,42.6,19.1,42.6,42.6s-19.1,42.6-42.6,42.6-42.6-19.1-42.6-42.6,19.1-42.6,42.6-42.6"/>
  </g>
</svg>