<?xml version="1.0" encoding="UTF-8"?>
<svg id="Capa_1" xmlns="http://www.w3.org/2000/svg" version="1.1" viewBox="0 0 93.2 146">
  <!-- Generator: Adobe Illustrator 29.3.1, SVG Export Plug-In . SVG Version: 2.1.0 Build 151)  -->
  <defs>
    <style>
      .st0 {
        fill: #fff;
      }

      .st1 {
        fill: none;
        stroke: #dbdbdb;
        stroke-miterlimit: 10;
        stroke-width: 2.6px;
      }

      .st2 {
        fill: #ededed;
      }

      .st3 {
        fill: #ff0d58;
      }
    </style>
  </defs>
  <g>
    <circle class="st3" cx="47.8" cy="71.3" r="27.4"/>
    <path class="st0" d="M48.2,57.6l3.2,9.9h10.4c.3,0,.5.4.2.6l-8.4,6.1,3.2,9.9c.1.3-.3.6-.5.4l-8.4-6.1-8.4,6.1c-.3.2-.6,0-.5-.4l3.2-9.9-8.4-6.1c-.3-.2-.1-.6.2-.6h10.4l3.2-9.9c.1-.3.6-.3.7,0Z"/>
  </g>
  <rect class="st1" x="2.2" y="2.5" width="88.7" height="140.9" rx="8" ry="8"/>
  <circle class="st2" cx="46.6" cy="130.1" r="5.4"/>
</svg>